<svg width="46" height="46" fill="none" xmlns="http://www.w3.org/2000/svg"><g clip-path="url(#clip0)"><path d="M23 46.002c12.702 0 23-10.298 23-23 0-12.703-10.298-23-23-23-12.703 0-23 10.297-23 23 0 12.702 10.297 23 23 23z" fill="#41B4E6"/><path d="M46 23c0-.56-.021-1.115-.06-1.666l-9.533-9.532L9.593 22.349l10.26 10.26.134.484.174-.175-.174.175 11.349 11.35C39.916 41.102 46 32.762 46 23z" fill="#0091C8"/><path d="M20.766 26.351L31.16 34.2l5.247-22.397L9.593 22.349l8.16 2.703 14.89-9.988L20.766 26.35z" fill="#fff"/><path d="M17.752 25.052l2.235 8.041.78-6.742 11.876-11.287-14.891 9.988z" fill="#D2D2D7"/><path d="M24.144 28.902l-4.157 4.191.78-6.742 3.377 2.55z" fill="#B9B9BE"/></g><defs><clipPath id="clip0"><path fill="#fff" d="M0 0h46v46H0z"/></clipPath></defs></svg>